<svg xmlns="http://www.w3.org/2000/svg"  viewBox="0 0 48 48" width="48px" height="48px" baseProfile="basic"><radialGradient id="jKRFocAMAyEYIf0usSkCqa" cx="14.902" cy="14.348" r="32.618" gradientUnits="userSpaceOnUse"><stop offset=".297" stop-color="#6e005b"/><stop offset=".605" stop-color="#eb0102"/><stop offset=".897" stop-color="#e8c300"/></radialGradient><path fill="url(#jKRFocAMAyEYIf0usSkCqa)" d="M20.95,6H38c2.209,0,4,1.791,4,4v14L28,38L6,30v-5.6L20.95,6z"/><linearGradient id="jKRFocAMAyEYIf0usSkCqb" x1="24" x2="24" y1="41.216" y2="30" gradientUnits="userSpaceOnUse"><stop offset=".283" stop-color="#151096"/><stop offset="1" stop-color="#52c5b1"/></linearGradient><path fill="url(#jKRFocAMAyEYIf0usSkCqb)" d="M42,30H6v8c0,1.309,0.628,2.47,1.6,3.2C8.268,41.702,42,30,42,30z"/><linearGradient id="jKRFocAMAyEYIf0usSkCqc" x1="24.8" x2="24.8" y1="42" y2="24" gradientUnits="userSpaceOnUse"><stop offset="0" stop-color="#162c69"/><stop offset=".734" stop-color="#2eb991"/></linearGradient><path fill="url(#jKRFocAMAyEYIf0usSkCqc)" d="M42,24v14c0,2.21-1.79,4-4,4H10c-0.9,0-1.73-0.3-2.4-0.8L42,24z"/><radialGradient id="jKRFocAMAyEYIf0usSkCqd" cx="21.603" cy="24.044" r="18.611" gradientUnits="userSpaceOnUse"><stop offset="0" stop-color="#f37683"/><stop offset=".138" stop-color="#f27c7b"/><stop offset=".356" stop-color="#f08c64"/><stop offset=".627" stop-color="#eda73e"/><stop offset=".939" stop-color="#e9cb0b"/><stop offset="1" stop-color="#e8d300"/></radialGradient><path fill="url(#jKRFocAMAyEYIf0usSkCqd)" d="M24,14c0,6.63-5.37,12-12,12c-2.19,0-4.24-0.58-6-1.6V10c0-2.21,1.79-4,4-4h10.95	C22.85,8.12,24,10.92,24,14z"/><circle cx="33.73" cy="12.851" r="1.178" fill="#fff"/><circle cx="29.426" cy="16.634" r="1.178" fill="#fff"/><circle cx="34.676" cy="18.656" r="1.178" fill="#fff"/><circle cx="29.598" cy="24.942" r="1.419" fill="#fff"/><path fill="#fff" d="M29.304,26c-0.766,0.386-1.467,2.196-1.614,3.712c-0.147,1.516,0.033,3.799-0.082,4.712	S27.38,36.56,27.38,36.56s1.011-0.391,2.576-0.685s2.56-0.505,3.571-0.88c1.011-0.375,1.614-1.321,1.614-1.321	s-0.727-1.718-2.451-3.17C31.454,29.464,31.261,27.408,29.304,26z"/><polygon fill="#fff" points="28.43,35.74 28.605,38.125 28.927,38.125 29.157,35.694"/><polygon fill="#fff" points="30.208,35.412 30.852,37.715 31.168,37.651 30.911,35.223"/></svg>